<svg width="24" height="24" viewBox="0 0 14 14" fill="none" xmlns="http://www.w3.org/2000/svg">
<path d="M13.016 5.82755H12.5052V5.79999H6.79783V8.45609H10.3817C9.85889 10.0023 8.45392 11.1122 6.79783 11.1122C4.69656 11.1122 2.99291 9.32828 2.99291 7.12804C2.99291 4.92779 4.69656 3.14389 6.79783 3.14389C7.76777 3.14389 8.65019 3.52703 9.32207 4.15288L11.1158 2.27468C9.98318 1.16941 8.46819 0.487793 6.79783 0.487793C3.29572 0.487793 0.456299 3.46096 0.456299 7.12804C0.456299 10.7951 3.29572 13.7683 6.79783 13.7683C10.2999 13.7683 13.1394 10.7951 13.1394 7.12804C13.1394 6.68281 13.0956 6.2482 13.016 5.82755Z" fill="#FFC107"/>
<path d="M1.1875 4.03734L3.27101 5.6373C3.83477 4.17578 5.2001 3.14389 6.79785 3.14389C7.76779 3.14389 8.65021 3.52703 9.3221 4.15288L11.1158 2.27468C9.9832 1.16941 8.46821 0.487793 6.79785 0.487793C4.36207 0.487793 2.24971 1.92773 1.1875 4.03734Z" fill="#FF3D00"/>
<path d="M6.79765 13.7683C8.43566 13.7683 9.92402 13.1119 11.0493 12.0445L9.08662 10.3054C8.44993 10.8104 7.65851 11.1122 6.79765 11.1122C5.14821 11.1122 3.74769 10.0109 3.22007 8.47406L1.1521 10.1424C2.20162 12.2929 4.33301 13.7683 6.79765 13.7683Z" fill="#4CAF50"/>
<path d="M13.016 5.82758H12.5052V5.80002H6.79785V8.45612H10.3818C10.1306 9.19883 9.67437 9.83928 9.08588 10.3058C9.08619 10.3054 9.08651 10.3054 9.08683 10.3051L11.0495 12.0442C10.9107 12.1763 13.1394 10.4482 13.1394 7.12807C13.1394 6.68284 13.0956 6.24823 13.016 5.82758Z" fill="#1976D2"/>
</svg>
